REM DIRINDEX 1\2\4\8,1\2\4\9,1\2\4\10,1\2\5\11,1\2\5\12,1\2\5\13,1\2\5\14,1\2\5\15,1\3\6\16,1\3\6\17,1\3\6\18,1\3\7\19,1\3\7\20,1\3\7\21,1\3\7\22,1\3\7\23
REM DIRNAME "folder01","folder02","folder03","folder04","folder05","folder06","folder07","folder08","folder09","folder10","folder11","folder12","folder13","folder14","folder15","folder16","folder17","folder18","folder19","folder20","folder21","folder22","folder23"
TITLE ""
FILE "LR_black_phrase_C06.mp3" MP3
  TRACK 01 AUDIO
    TITLE "0:"
    INDEX 01 00:00:00
  TRACK 02 AUDIO
    TITLE "19:cjc171_14501"
    INDEX 01 00:00:14
  TRACK 03 AUDIO
    TITLE "0:"
    INDEX 01 00:01:25
  TRACK 04 AUDIO
    TITLE "20:cjc171_14502"
    INDEX 01 00:01:63
  TRACK 05 AUDIO
    TITLE "0:"
    INDEX 01 00:03:65
  TRACK 06 AUDIO
    TITLE "21:cjc171_14503"
    INDEX 01 00:04:63
  TRACK 07 AUDIO
    TITLE "0:"
    INDEX 01 00:06:66
  TRACK 08 AUDIO
    TITLE "22:cjc171_14504"
    INDEX 01 00:07:30
  TRACK 09 AUDIO
    TITLE "0:"
    INDEX 01 00:09:60
  TRACK 10 AUDIO
    TITLE "23:cjc171_14505"
    INDEX 01 00:10:15
  TRACK 11 AUDIO
    TITLE "0:"
    INDEX 01 00:12:45
  TRACK 12 AUDIO
    TITLE "19:cjc171_14506"
    INDEX 01 00:13:50
  TRACK 13 AUDIO
    TITLE "0:"
    INDEX 01 00:14:65
  TRACK 14 AUDIO
    TITLE "20:cjc171_14507"
    INDEX 01 00:15:29
  TRACK 15 AUDIO
    TITLE "0:"
    INDEX 01 00:16:50
  TRACK 16 AUDIO
    TITLE "21:cjc171_14508"
    INDEX 01 00:17:48
  TRACK 17 AUDIO
    TITLE "0:"
    INDEX 01 00:20:05
  TRACK 18 AUDIO
    TITLE "22:cjc171_14509"
    INDEX 01 00:20:44
  TRACK 19 AUDIO
    TITLE "0:"
    INDEX 01 00:23:21
  TRACK 20 AUDIO
    TITLE "23:cjc171_14510"
    INDEX 01 00:23:49
  TRACK 21 AUDIO
    TITLE "0:"
    INDEX 01 00:26:25
  TRACK 22 AUDIO
    TITLE "19:cjc171_14511"
    INDEX 01 00:27:23
  TRACK 23 AUDIO
    TITLE "0:"
    INDEX 01 00:28:30
  TRACK 24 AUDIO
    TITLE "20:cjc171_14512"
    INDEX 01 00:28:65
  TRACK 25 AUDIO
    TITLE "0:"
    INDEX 01 00:30:68
  TRACK 26 AUDIO
    TITLE "21:cjc171_14513"
    INDEX 01 00:31:68
  TRACK 27 AUDIO
    TITLE "0:"
    INDEX 01 00:33:31
  TRACK 28 AUDIO
    TITLE "22:cjc171_14514"
    INDEX 01 00:33:65
  TRACK 29 AUDIO
    TITLE "0:"
    INDEX 01 00:35:52
  TRACK 30 AUDIO
    TITLE "23:cjc171_14515"
    INDEX 01 00:35:71
  TRACK 31 AUDIO
    TITLE "0:"
    INDEX 01 00:37:58
  TRACK 32 AUDIO
    TITLE "19:cjc171_14516"
    INDEX 01 00:38:54
  TRACK 33 AUDIO
    TITLE "0:"
    INDEX 01 00:39:69
  TRACK 34 AUDIO
    TITLE "20:cjc171_14517"
    INDEX 01 00:40:27
  TRACK 35 AUDIO
    TITLE "0:"
    INDEX 01 00:42:48
  TRACK 36 AUDIO
    TITLE "21:cjc171_14518"
    INDEX 01 00:43:47
  TRACK 37 AUDIO
    TITLE "0:"
    INDEX 01 00:46:16
  TRACK 38 AUDIO
    TITLE "22:cjc171_14519"
    INDEX 01 00:46:52
  TRACK 39 AUDIO
    TITLE "0:"
    INDEX 01 00:49:32
  TRACK 40 AUDIO
    TITLE "23:cjc171_14520"
    INDEX 01 00:49:52
  TRACK 41 AUDIO
    TITLE "0:"
    INDEX 01 00:52:33
  TRACK 42 AUDIO
    TITLE "19:cjc171_14521"
    INDEX 01 00:53:34
  TRACK 43 AUDIO
    TITLE "0:"
    INDEX 01 00:54:59
  TRACK 44 AUDIO
    TITLE "20:cjc171_14522"
    INDEX 01 00:55:23
  TRACK 45 AUDIO
    TITLE "0:"
    INDEX 01 00:56:58
  TRACK 46 AUDIO
    TITLE "21:cjc171_14523"
    INDEX 01 00:57:55
  TRACK 47 AUDIO
    TITLE "0:"
    INDEX 01 01:00:48
  TRACK 48 AUDIO
    TITLE "22:cjc171_14524"
    INDEX 01 01:01:12
  TRACK 49 AUDIO
    TITLE "0:"
    INDEX 01 01:03:60
  TRACK 50 AUDIO
    TITLE "23:cjc171_14525"
    INDEX 01 01:04:12
  TRACK 51 AUDIO
    TITLE "0:"
    INDEX 01 01:06:58
  TRACK 52 AUDIO
    TITLE "19:cjc171_14526"
    INDEX 01 01:07:64
  TRACK 53 AUDIO
    TITLE "0:"
    INDEX 01 01:09:04
  TRACK 54 AUDIO
    TITLE "20:cjc171_14527"
    INDEX 01 01:09:43
  TRACK 55 AUDIO
    TITLE "0:"
    INDEX 01 01:10:60
  TRACK 56 AUDIO
    TITLE "21:cjc171_14528"
    INDEX 01 01:11:57
  TRACK 57 AUDIO
    TITLE "0:"
    INDEX 01 01:13:64
  TRACK 58 AUDIO
    TITLE "22:cjc171_14529"
    INDEX 01 01:14:32
  TRACK 59 AUDIO
    TITLE "0:"
    INDEX 01 01:16:27
  TRACK 60 AUDIO
    TITLE "23:cjc171_14530"
    INDEX 01 01:16:60
  TRACK 61 AUDIO
    TITLE "0:"
    INDEX 01 01:18:55
  TRACK 62 AUDIO
    TITLE "19:cjc171_14531"
    INDEX 01 01:19:55
  TRACK 63 AUDIO
    TITLE "0:"
    INDEX 01 01:20:60
  TRACK 64 AUDIO
    TITLE "20:cjc171_14532"
    INDEX 01 01:21:21
  TRACK 65 AUDIO
    TITLE "0:"
    INDEX 01 01:23:59
  TRACK 66 AUDIO
    TITLE "21:cjc171_14533"
    INDEX 01 01:24:58
  TRACK 67 AUDIO
    TITLE "0:"
    INDEX 01 01:27:07
  TRACK 68 AUDIO
    TITLE "22:cjc171_14534"
    INDEX 01 01:27:43
  TRACK 69 AUDIO
    TITLE "0:"
    INDEX 01 01:30:16
  TRACK 70 AUDIO
    TITLE "23:cjc171_14535"
    INDEX 01 01:30:35
  TRACK 71 AUDIO
    TITLE "0:"
    INDEX 01 01:33:06
  TRACK 72 AUDIO
    TITLE "19:cjc171_14536"
    INDEX 01 01:34:04
  TRACK 73 AUDIO
    TITLE "0:"
    INDEX 01 01:35:28
  TRACK 74 AUDIO
    TITLE "20:cjc171_14537"
    INDEX 01 01:35:60
  TRACK 75 AUDIO
    TITLE "0:"
    INDEX 01 01:37:72
  TRACK 76 AUDIO
    TITLE "21:cjc171_14538"
    INDEX 01 01:38:72
  TRACK 77 AUDIO
    TITLE "0:"
    INDEX 01 01:40:55
  TRACK 78 AUDIO
    TITLE "22:cjc171_14539"
    INDEX 01 01:41:17
  TRACK 79 AUDIO
    TITLE "0:"
    INDEX 01 01:43:06
  TRACK 80 AUDIO
    TITLE "23:cjc171_14540"
    INDEX 01 01:43:30
  TRACK 81 AUDIO
    TITLE "0:"
    INDEX 01 01:45:17
  TRACK 82 AUDIO
    TITLE "19:cjc171_14541"
    INDEX 01 01:46:18
  TRACK 83 AUDIO
    TITLE "0:"
    INDEX 01 01:47:22
  TRACK 84 AUDIO
    TITLE "20:cjc171_14542"
    INDEX 01 01:47:59
  TRACK 85 AUDIO
    TITLE "0:"
    INDEX 01 01:49:07
  TRACK 86 AUDIO
    TITLE "21:cjc171_14543"
    INDEX 01 01:50:06
  TRACK 87 AUDIO
    TITLE "0:"
    INDEX 01 01:52:39
  TRACK 88 AUDIO
    TITLE "22:cjc171_14544"
    INDEX 01 01:53:05
  TRACK 89 AUDIO
    TITLE "0:"
    INDEX 01 01:55:55
  TRACK 90 AUDIO
    TITLE "23:cjc171_14545"
    INDEX 01 01:56:09
  TRACK 91 AUDIO
    TITLE "0:"
    INDEX 01 01:58:61
  TRACK 92 AUDIO
    TITLE "19:cjc171_14546"
    INDEX 01 01:59:66
  TRACK 93 AUDIO
    TITLE "0:"
    INDEX 01 02:00:66
  TRACK 94 AUDIO
    TITLE "20:cjc171_14547"
    INDEX 01 02:01:30
  TRACK 95 AUDIO
    TITLE "0:"
    INDEX 01 02:03:44
  TRACK 96 AUDIO
    TITLE "21:cjc171_14548"
    INDEX 01 02:04:44
  TRACK 97 AUDIO
    TITLE "0:"
    INDEX 01 02:06:23
  TRACK 98 AUDIO
    TITLE "22:cjc171_14549"
    INDEX 01 02:06:62
  TRACK 99 AUDIO
    TITLE "0:"
    INDEX 01 02:08:53
  TRACK 100 AUDIO
    TITLE "23:cjc171_14550"
    INDEX 01 02:09:10
  TRACK 101 AUDIO
    TITLE "0:"
    INDEX 01 02:11:01
  TRACK 102 AUDIO
    TITLE "19:cjc171_14551"
    INDEX 01 02:12:02
  TRACK 103 AUDIO
    TITLE "0:"
    INDEX 01 02:13:00
  TRACK 104 AUDIO
    TITLE "20:cjc171_14552"
    INDEX 01 02:13:37
  TRACK 105 AUDIO
    TITLE "0:"
    INDEX 01 02:14:48
  TRACK 106 AUDIO
    TITLE "21:cjc171_14553"
    INDEX 01 02:15:48
  TRACK 107 AUDIO
    TITLE "0:"
    INDEX 01 02:17:13
  TRACK 108 AUDIO
    TITLE "22:cjc171_14554"
    INDEX 01 02:17:48
  TRACK 109 AUDIO
    TITLE "0:"
    INDEX 01 02:19:30
  TRACK 110 AUDIO
    TITLE "23:cjc171_14555"
    INDEX 01 02:19:49
  TRACK 111 AUDIO
    TITLE "0:"
    INDEX 01 02:21:29
  TRACK 112 AUDIO
    TITLE "19:cjc171_14556"
    INDEX 01 02:22:22
  TRACK 113 AUDIO
    TITLE "0:"
    INDEX 01 02:23:28
  TRACK 114 AUDIO
    TITLE "20:cjc171_14557"
    INDEX 01 02:23:67
  TRACK 115 AUDIO
    TITLE "0:"
    INDEX 01 02:26:63
  TRACK 116 AUDIO
    TITLE "21:cjc171_14558"
    INDEX 01 02:27:63
  TRACK 117 AUDIO
    TITLE "0:"
    INDEX 01 02:29:38
  TRACK 118 AUDIO
    TITLE "22:cjc171_14559"
    INDEX 01 02:30:02
  TRACK 119 AUDIO
    TITLE "0:"
    INDEX 01 02:31:47
  TRACK 120 AUDIO
    TITLE "23:cjc171_14560"
    INDEX 01 02:31:72
  TRACK 121 AUDIO
    TITLE "0:"
    INDEX 01 02:33:42
  TRACK 122 AUDIO
    TITLE "19:cjc171_14561"
    INDEX 01 02:34:43
  TRACK 123 AUDIO
    TITLE "0:"
    INDEX 01 02:35:60
  TRACK 124 AUDIO
    TITLE "20:cjc171_14562"
    INDEX 01 02:36:24
  TRACK 125 AUDIO
    TITLE "0:"
    INDEX 01 02:37:57
  TRACK 126 AUDIO
    TITLE "21:cjc171_14563"
    INDEX 01 02:38:58
  TRACK 127 AUDIO
    TITLE "0:"
    INDEX 01 02:40:67
  TRACK 128 AUDIO
    TITLE "22:cjc171_14564"
    INDEX 01 02:41:31
  TRACK 129 AUDIO
    TITLE "0:"
    INDEX 01 02:43:60
  TRACK 130 AUDIO
    TITLE "23:cjc171_14565"
    INDEX 01 02:44:12
  TRACK 131 AUDIO
    TITLE "0:"
    INDEX 01 02:46:42
  TRACK 132 AUDIO
    TITLE "19:cjc171_14566"
    INDEX 01 02:47:46
  TRACK 133 AUDIO
    TITLE "0:"
    INDEX 01 02:48:63
  TRACK 134 AUDIO
    TITLE "20:cjc171_14567"
    INDEX 01 02:49:25
  TRACK 135 AUDIO
    TITLE "0:"
    INDEX 01 02:51:43
  TRACK 136 AUDIO
    TITLE "21:cjc171_14568"
    INDEX 01 02:52:41
  TRACK 137 AUDIO
    TITLE "0:"
    INDEX 01 02:54:18
  TRACK 138 AUDIO
    TITLE "22:cjc171_14569"
    INDEX 01 02:54:54
  TRACK 139 AUDIO
    TITLE "0:"
    INDEX 01 02:56:64
  TRACK 140 AUDIO
    TITLE "23:cjc171_14570"
    INDEX 01 02:57:19
  TRACK 141 AUDIO
    TITLE "0:"
    INDEX 01 02:59:29
  TRACK 142 AUDIO
    TITLE "19:cjc171_14571"
    INDEX 01 03:00:31
  TRACK 143 AUDIO
    TITLE "0:"
    INDEX 01 03:01:32
  TRACK 144 AUDIO
    TITLE "20:cjc171_14572"
    INDEX 01 03:01:65
  TRACK 145 AUDIO
    TITLE "0:"
    INDEX 01 03:05:16
  TRACK 146 AUDIO
    TITLE "21:cjc171_14573"
    INDEX 01 03:06:14
  TRACK 147 AUDIO
    TITLE "0:"
    INDEX 01 03:08:20
  TRACK 148 AUDIO
    TITLE "22:cjc171_14574"
    INDEX 01 03:08:52
  TRACK 149 AUDIO
    TITLE "0:"
    INDEX 01 03:10:56
  TRACK 150 AUDIO
    TITLE "23:cjc171_14575"
    INDEX 01 03:10:74
  TRACK 151 AUDIO
    TITLE "0:"
    INDEX 01 03:13:04
  TRACK 152 AUDIO
    TITLE "19:cjc171_14576"
    INDEX 01 03:13:72
  TRACK 153 AUDIO
    TITLE "0:"
    INDEX 01 03:15:07
  TRACK 154 AUDIO
    TITLE "20:cjc171_14577"
    INDEX 01 03:15:44
  TRACK 155 AUDIO
    TITLE "0:"
    INDEX 01 03:18:38
  TRACK 156 AUDIO
    TITLE "21:cjc171_14578"
    INDEX 01 03:19:38
  TRACK 157 AUDIO
    TITLE "0:"
    INDEX 01 03:21:56
  TRACK 158 AUDIO
    TITLE "22:cjc171_14579"
    INDEX 01 03:22:19
  TRACK 159 AUDIO
    TITLE "0:"
    INDEX 01 03:23:65
  TRACK 160 AUDIO
    TITLE "23:cjc171_14580"
    INDEX 01 03:24:12
  TRACK 161 AUDIO
    TITLE "0:"
    INDEX 01 03:25:60
  TRACK 162 AUDIO
    TITLE "19:cjc171_14581"
    INDEX 01 03:26:61
  TRACK 163 AUDIO
    TITLE "0:"
    INDEX 01 03:28:07
  TRACK 164 AUDIO
    TITLE "20:cjc171_14582"
    INDEX 01 03:28:48
  TRACK 165 AUDIO
    TITLE "0:"
    INDEX 01 03:31:00
  TRACK 166 AUDIO
    TITLE "21:cjc171_14583"
    INDEX 01 03:32:01
  TRACK 167 AUDIO
    TITLE "0:"
    INDEX 01 03:33:63
  TRACK 168 AUDIO
    TITLE "22:cjc171_14584"
    INDEX 01 03:34:31
  TRACK 169 AUDIO
    TITLE "0:"
    INDEX 01 03:36:50
  TRACK 170 AUDIO
    TITLE "23:cjc171_14585"
    INDEX 01 03:37:06
  TRACK 171 AUDIO
    TITLE "0:"
    INDEX 01 03:39:25
  TRACK 172 AUDIO
    TITLE "19:cjc171_14586"
    INDEX 01 03:40:28
  TRACK 173 AUDIO
    TITLE "0:"
    INDEX 01 03:41:53
  TRACK 174 AUDIO
    TITLE "20:cjc171_14587"
    INDEX 01 03:42:17
  TRACK 175 AUDIO
    TITLE "0:"
    INDEX 01 03:44:26
  TRACK 176 AUDIO
    TITLE "21:cjc171_14588"
    INDEX 01 03:45:23
  TRACK 177 AUDIO
    TITLE "0:"
    INDEX 01 03:47:01
  TRACK 178 AUDIO
    TITLE "22:cjc171_14589"
    INDEX 01 03:47:40
  TRACK 179 AUDIO
    TITLE "0:"
    INDEX 01 03:49:15
  TRACK 180 AUDIO
    TITLE "23:cjc171_14590"
    INDEX 01 03:49:45
  TRACK 181 AUDIO
    TITLE "0:"
    INDEX 01 03:51:20
  TRACK 182 AUDIO
    TITLE "19:cjc171_14591"
    INDEX 01 03:52:22
  TRACK 183 AUDIO
    TITLE "0:"
    INDEX 01 03:53:41
  TRACK 184 AUDIO
    TITLE "20:cjc171_14592"
    INDEX 01 03:54:01
  TRACK 185 AUDIO
    TITLE "0:"
    INDEX 01 03:56:51
  TRACK 186 AUDIO
    TITLE "21:cjc171_14593"
    INDEX 01 03:57:50
  TRACK 187 AUDIO
    TITLE "0:"
    INDEX 01 04:00:07
  TRACK 188 AUDIO
    TITLE "22:cjc171_14594"
    INDEX 01 04:00:43
  TRACK 189 AUDIO
    TITLE "0:"
    INDEX 01 04:02:47
  TRACK 190 AUDIO
    TITLE "23:cjc171_14595"
    INDEX 01 04:02:67
  TRACK 191 AUDIO
    TITLE "0:"
    INDEX 01 04:04:74
  TRACK 192 AUDIO
    TITLE "19:cjc171_14596"
    INDEX 01 04:05:67
  TRACK 193 AUDIO
    TITLE "0:"
    INDEX 01 04:07:09
  TRACK 194 AUDIO
    TITLE "20:cjc171_14597"
    INDEX 01 04:07:45
  TRACK 195 AUDIO
    TITLE "0:"
    INDEX 01 04:10:27
  TRACK 196 AUDIO
    TITLE "21:cjc171_14598"
    INDEX 01 04:11:27
  TRACK 197 AUDIO
    TITLE "0:"
    INDEX 01 04:13:33
  TRACK 198 AUDIO
    TITLE "22:cjc171_14599"
    INDEX 01 04:13:65
  TRACK 199 AUDIO
    TITLE "0:"
    INDEX 01 04:15:58
  TRACK 200 AUDIO
    TITLE "23:cjc171_14600"
    INDEX 01 04:16:02
  TRACK 201 AUDIO
    TITLE "0:"
    INDEX 01 04:17:70
